<svg width="260" height="8" viewBox="0 0 260 8" fill="none" xmlns="http://www.w3.org/2000/svg">
<circle cx="4" cy="4" r="4" fill="white"/>
<circle cx="28" cy="4" r="4" fill="white"/>
<circle cx="52" cy="4" r="4" fill="white"/>
<circle cx="76" cy="4" r="4" fill="white"/>
<circle cx="100" cy="4" r="4" fill="#F05A00"/>
<circle cx="124" cy="4" r="4" fill="white"/>
<circle cx="148" cy="4" r="4" fill="white"/>
<circle cx="172" cy="4" r="4" fill="white"/>
<circle cx="196" cy="4" r="4" fill="white"/>
<circle cx="220" cy="4" r="4" fill="white"/>
<circle cx="244" cy="4" r="4" fill="white"/>
<circle cx="16" cy="4" r="4" fill="white"/>
<circle cx="40" cy="4" r="4" fill="white"/>
<circle cx="64" cy="4" r="4" fill="white"/>
<circle cx="88" cy="4" r="4" fill="white"/>
<circle cx="112" cy="4" r="4" fill="white"/>
<circle cx="136" cy="4" r="4" fill="white"/>
<circle cx="160" cy="4" r="4" fill="white"/>
<circle cx="184" cy="4" r="4" fill="white"/>
<circle cx="208" cy="4" r="4" fill="white"/>
<circle cx="232" cy="4" r="4" fill="white"/>
<circle cx="256" cy="4" r="4" fill="white"/>
</svg>
